<svg width="164" height="139" viewBox="0 0 164 139" fill="none" xmlns="http://www.w3.org/2000/svg">
<path fill-rule="evenodd" clip-rule="evenodd" d="M113.355 1.07903C128.138 2.57478 143.067 4.01736 155.919 11.4613C168.756 18.8969 175.727 32.5036 186.026 43.1714C199.822 57.4605 225.848 65.2409 226.971 85.0545C228.072 104.484 197.578 111.47 190.933 129.766C182.092 154.106 202.283 188.246 183.143 205.719C165.632 221.706 137.02 202.34 113.355 200.589C91.6305 198.982 66.8772 208.653 49.2948 195.815C31.5948 182.891 28.3015 157.65 24.9239 136.02C22.2318 118.78 35.4688 102.156 31.9991 85.0545C27.1917 61.3604 -7.57105 43.0045 1.50383 20.5908C9.96219 -0.300285 43.2641 6.19139 65.4996 2.31254C81.4909 -0.477047 97.204 -0.555143 113.355 1.07903Z" fill="#EC7474"/>
</svg>
