<svg width="470" height="504" viewBox="0 0 470 504" fill="none" xmlns="http://www.w3.org/2000/svg">
<path fill-rule="evenodd" clip-rule="evenodd" d="M186.122 -24.3002C223.045 -20.5577 260.333 -16.9483 292.433 1.67686C324.496 20.2811 341.907 54.3261 367.631 81.0174C402.089 116.77 467.093 136.237 469.897 185.812C472.647 234.425 396.484 251.906 379.886 297.681C357.804 358.583 408.235 444.002 360.43 487.721C316.693 527.721 245.23 479.268 186.122 474.887C131.862 470.865 70.037 495.062 26.1219 462.941C-18.0867 430.604 -26.3123 367.45 -34.7484 313.331C-41.4724 270.196 -8.41079 228.599 -17.077 185.812C-29.0843 126.527 -115.91 80.6 -93.2439 24.5194C-72.1178 -27.7513 11.0593 -11.5088 66.5962 -21.2139C106.537 -28.1936 145.783 -28.389 186.122 -24.3002Z" fill="#EC7474"/>
</svg>
