<svg width="393" height="319" viewBox="0 0 393 319" fill="none" xmlns="http://www.w3.org/2000/svg">
<path fill-rule="evenodd" clip-rule="evenodd" d="M273.499 5.4578C219.035 17.9646 189.98 75.896 142.724 105.72C97.8816 134.021 20.6945 126.092 3.09686 176.113C-15.723 229.608 57.1416 275.828 63.0362 332.23C68.02 379.917 9.91422 429.046 33.8718 470.579C57.8261 512.105 124.804 494.249 168.221 514.576C206.744 532.611 234.34 566.156 273.499 582.764C329.892 606.682 388.578 651.077 447.055 632.838C503.808 615.138 537.28 551.563 555.237 494.892C571.952 442.142 546.512 387.404 542.308 332.23C538.46 281.732 547.432 231.348 531.494 183.276C513.27 128.31 491.931 69.342 444.251 36.4792C395.794 3.08106 330.858 -7.71379 273.499 5.4578Z" fill="#EC7474"/>
</svg>
