<svg width="320" height="349" viewBox="0 0 320 349" fill="none" xmlns="http://www.w3.org/2000/svg">
<path fill-rule="evenodd" clip-rule="evenodd" d="M36.1224 -179.3C73.0448 -175.558 110.333 -171.948 142.433 -153.323C174.496 -134.719 191.907 -100.674 217.631 -73.9826C252.089 -38.2302 317.093 -18.7634 319.897 30.8116C322.647 79.4253 246.484 96.9059 229.886 142.681C207.804 203.583 258.235 289.002 210.43 332.721C166.693 372.721 95.2299 324.268 36.1224 319.887C-18.1377 315.865 -79.963 340.062 -123.878 307.941C-168.087 275.604 -176.312 212.45 -184.748 158.331C-191.472 115.196 -158.411 73.5994 -167.077 30.8116C-179.084 -28.4726 -265.91 -74.4 -243.244 -130.481C-222.118 -182.751 -138.941 -166.509 -83.4038 -176.214C-43.4629 -183.194 -4.21704 -183.389 36.1224 -179.3Z" fill="#EC7474"/>
</svg>
